<svg width="32" height="6" viewBox="0 0 32 6" fill="none" xmlns="http://www.w3.org/2000/svg">
<path d="M28.875 -1.14742e-07C28.1788 -1.45174e-07 27.5111 0.276561 27.0188 0.768844C26.5266 1.26113 26.25 1.92881 26.25 2.625C26.25 3.32119 26.5266 3.98887 27.0188 4.48115C27.5111 4.97344 28.1788 5.25 28.875 5.25C29.5712 5.25 30.2389 4.97344 30.7312 4.48115C31.2234 3.98887 31.5 3.32119 31.5 2.625C31.5 1.92881 31.2234 1.26113 30.7312 0.768844C30.2389 0.276561 29.5712 -8.43108e-08 28.875 -1.14742e-07ZM15.75 -6.88454e-07C15.0538 -7.18886e-07 14.3861 0.27656 13.8938 0.768843C13.4016 1.26113 13.125 1.92881 13.125 2.625C13.125 3.32119 13.4016 3.98887 13.8938 4.48115C14.3861 4.97344 15.0538 5.25 15.75 5.25C16.4462 5.25 17.1139 4.97344 17.6062 4.48115C18.0984 3.98887 18.375 3.32119 18.375 2.625C18.375 1.92881 18.0984 1.26113 17.6062 0.768844C17.1139 0.276561 16.4462 -6.58023e-07 15.75 -6.88454e-07ZM2.625 -1.26217e-06C1.92881 -1.2926e-06 1.26113 0.27656 0.768845 0.768843C0.276562 1.26113 -8.43108e-08 1.92881 -1.14742e-07 2.625C-1.45174e-07 3.32119 0.276562 3.98887 0.768844 4.48115C1.26113 4.97344 1.92881 5.25 2.625 5.25C3.32119 5.25 3.98887 4.97344 4.48116 4.48115C4.97344 3.98887 5.25 3.32119 5.25 2.625C5.25 1.92881 4.97344 1.26113 4.48116 0.768843C3.98887 0.27656 3.32119 -1.23173e-06 2.625 -1.26217e-06Z" fill="black"/>
</svg>
